<svg width="39" height="44" viewBox="0 0 39 44" fill="none" xmlns="http://www.w3.org/2000/svg">
<path d="M21.3821 39.9284V21.2532" stroke="#00453A" stroke-width="1.3292" stroke-miterlimit="10" stroke-linecap="round" stroke-linejoin="round"/>
<path d="M5.46289 5.28601L10.4972 10.3203L21.4465 21.2696L32.9607 9.73882L37.3969 5.31924L5.46289 5.28601Z" stroke="#00453A" stroke-width="1.3292" stroke-miterlimit="10" stroke-linecap="round" stroke-linejoin="round"/>
<path d="M9.28418 9.10724H33.5919" stroke="#00453A" stroke-width="1.3292" stroke-miterlimit="10" stroke-linecap="round" stroke-linejoin="round"/>
<path d="M28.4259 43.2348L21.3812 39.9284L14.3364 43.2348H28.4259Z" stroke="#00453A" stroke-width="1.3292" stroke-miterlimit="10" stroke-linecap="round" stroke-linejoin="round"/>
<path d="M8.50404 8.37615C7.70652 9.17366 6.67639 9.6555 5.4635 9.6555C3.03771 9.67211 1.07715 7.69493 1.07715 5.28576C1.07715 2.87659 3.03771 0.899414 5.4635 0.899414C7.88928 0.899414 9.84985 2.85998 9.84985 5.28576" stroke="#00453A" stroke-width="1.3292" stroke-miterlimit="10" stroke-linecap="round" stroke-linejoin="round"/>
<path d="M33.1133 9.37991H10.0288L21.3355 21.1577L33.1133 9.37991Z" fill="#00453A"/>
</svg>
