<svg width="25" height="36" viewBox="0 0 25 36" fill="none" xmlns="http://www.w3.org/2000/svg">
<path fill-rule="evenodd" clip-rule="evenodd" d="M23.3625 12.6277C23.9148 12.6277 24.3625 12.18 24.3625 11.6277V6.76462C23.3849 6.76462 22.585 5.97459 22.585 4.98706C22.585 3.99952 23.375 3.20949 24.3625 3.20949V0H0V3.20949C0.977661 3.20949 1.77757 3.99952 1.77757 4.98706C1.77757 5.97459 0.987536 6.76462 0 6.76462V11.6277C0 12.18 0.447715 12.6277 1 12.6277H23.3625ZM8.03759 6.41963H16.3329C16.5403 6.41963 16.718 6.24187 16.7279 6.02461V3.94091C16.7279 3.72365 16.5502 3.5459 16.3329 3.5459H8.03759C7.82033 3.5459 7.64258 3.72365 7.64258 3.94091V6.02461C7.64258 6.24187 7.82033 6.41963 8.03759 6.41963Z" fill="#00453A"/>
<path d="M1 13.8127C0.447715 13.8127 0 14.2605 0 14.8127V19.6277C0 20.18 0.447715 20.6277 0.999999 20.6277H23.3625C23.9148 20.6277 24.3625 20.18 24.3625 19.6277V14.8127C24.3625 14.2605 23.9148 13.8127 23.3625 13.8127H1Z" fill="#00453A"/>
<path d="M0 27.6277C0 28.18 0.447715 28.6277 0.999999 28.6277H23.3625C23.9148 28.6277 24.3625 28.18 24.3625 27.6277V22.8127C24.3625 22.2605 23.9148 21.8127 23.3625 21.8127H1C0.447715 21.8127 0 22.2605 0 22.8127V27.6277Z" fill="#00453A"/>
<path d="M0 35.2155H24.3625V30.8127C24.3625 30.2605 23.9148 29.8127 23.3625 29.8127H1C0.447715 29.8127 0 30.2605 0 30.8127V35.2155Z" fill="#00453A"/>
</svg>
