<svg width="39" height="47" viewBox="0 0 39 47" fill="none" xmlns="http://www.w3.org/2000/svg">
<path fill-rule="evenodd" clip-rule="evenodd" d="M18.6775 36.4932C16.0804 31.0843 17.3386 25.0829 21.4878 23.0887C25.637 21.0946 31.106 23.8628 33.7032 29.2718C36.3003 34.6807 35.0421 40.6821 30.8929 42.6763C26.7437 44.6704 21.2747 41.9022 18.6775 36.4932ZM24.0585 25.8562C23.8096 25.6007 23.3876 25.5901 23.1157 25.8327C22.8438 26.0752 22.8252 26.4789 23.074 26.7345C24.2088 27.9 24.4784 29.2107 24.54 30.5207C24.5555 30.8505 24.5577 31.1766 24.5579 31.5024L24.5579 31.6608C24.5578 31.9307 24.5576 32.2026 24.5648 32.4632C24.5816 33.0776 24.6389 33.7185 24.8814 34.2788L24.8816 34.2792C25.2918 35.2248 25.7641 36.0661 26.4857 36.8427C27.2064 37.6185 28.149 38.3012 29.4645 38.9692C29.7875 39.1332 30.1932 39.0134 30.3707 38.7016C30.5481 38.3898 30.4301 38.0041 30.1071 37.8401C28.89 37.2221 28.0832 36.6238 27.4905 35.9859C26.8987 35.3489 26.4937 34.6438 26.1158 33.7726C25.9713 33.4387 25.915 32.9965 25.8989 32.4067C25.8922 32.1647 25.8923 31.913 25.8925 31.6431L25.8925 31.4786C25.8923 31.1501 25.8902 30.8001 25.8732 30.4404C25.8051 28.9927 25.4956 27.3323 24.0585 25.8562Z" fill="#00453A"/>
<path fill-rule="evenodd" clip-rule="evenodd" d="M6.74913 22.8864C2.61261 20.6896 1.45579 14.6588 4.16529 9.41619C6.8748 4.17357 12.4246 1.70441 16.5611 3.90117C20.6976 6.09792 21.8545 12.1287 19.145 17.3713C16.4355 22.614 10.8857 25.0831 6.74913 22.8864ZM16.179 7.59588C16.2366 7.24968 15.9802 6.91029 15.6063 6.83784C15.2324 6.76539 14.8826 6.98731 14.825 7.33351C14.5627 8.91025 13.6387 9.89136 12.5821 10.7087C12.2546 10.962 11.955 11.1712 11.6535 11.3818L11.6534 11.3819C11.4308 11.5373 11.2072 11.6934 10.9705 11.8686C10.4647 12.243 9.9624 12.6634 9.63956 13.1811C9.09703 14.051 8.68924 14.9149 8.49196 15.9408C8.29512 16.9644 8.31486 18.1119 8.57339 19.5434C8.63684 19.8948 8.9906 20.1467 9.36354 20.1061C9.73648 20.0655 9.98736 19.7477 9.92391 19.3964C9.68399 18.0679 9.67865 17.075 9.84073 16.2321C10.0023 15.3917 10.3375 14.6633 10.8325 13.8696C11.0284 13.5554 11.3694 13.2489 11.8554 12.8892C12.0272 12.762 12.2335 12.6173 12.4538 12.4627L12.4538 12.4627C12.7905 12.2264 13.1599 11.9672 13.4883 11.7132C14.6568 10.8093 15.847 9.59193 16.179 7.59588Z" fill="#00453A"/>
</svg>
