<svg width="24" height="24" viewBox="0 0 24 24" fill="none" xmlns="http://www.w3.org/2000/svg">
<path d="M18.0208 5.29289C17.6303 4.90237 16.9972 4.90237 16.6066 5.29289L11.6569 10.2427L6.70711 5.29291C6.31658 4.90238 5.68342 4.90238 5.29289 5.29291C4.90237 5.68343 4.90237 6.3166 5.29289 6.70712L10.2426 11.6569L5.29292 16.6066C4.9024 16.9971 4.9024 17.6303 5.29292 18.0208C5.68345 18.4113 6.31661 18.4113 6.70714 18.0208L11.6569 13.0711L16.6066 18.0208C16.9971 18.4114 17.6303 18.4114 18.0208 18.0208C18.4113 17.6303 18.4113 16.9971 18.0208 16.6066L13.0711 11.6569L18.0208 6.70711C18.4114 6.31658 18.4114 5.68342 18.0208 5.29289Z" fill="#2D2D2D"/>
</svg>
