<svg width="44" height="30" viewBox="0 0 44 30" fill="none" xmlns="http://www.w3.org/2000/svg">
<path fill-rule="evenodd" clip-rule="evenodd" d="M9.52763 1.2509L0.833392 11.5391C0.295248 12.1759 0 12.9827 0 13.8164V23.8157H4.58866C4.66674 20.859 7.0881 18.4864 10.0633 18.4864C13.0388 18.4864 15.4601 20.859 15.5382 23.8157H28.1993C28.2774 20.859 30.6987 18.4864 33.6739 18.4864C36.6494 18.4864 39.0708 20.859 39.1489 23.8157H43.5738V0H12.2225C11.1839 0 10.198 0.457617 9.52763 1.2509ZM37.8121 14.7134H13.8363V4.61204H37.8121V14.7134Z" fill="#00453A"/>
<path d="M14.4819 23.963C14.4819 26.4031 12.5037 28.381 10.0635 28.381C7.62358 28.381 5.64539 26.4031 5.64539 23.963C5.64539 21.5228 7.62358 19.5449 10.0635 19.5449C12.5037 19.5449 14.4819 21.5229 14.4819 23.963ZM38.0925 23.963C38.0925 26.4031 36.1144 28.381 33.6741 28.381C31.2342 28.381 29.256 26.4031 29.256 23.963C29.256 21.5228 31.2342 19.5449 33.6741 19.5449C36.1144 19.5449 38.0925 21.5229 38.0925 23.963Z" stroke="#00453A" stroke-width="2.11695" stroke-linecap="round" stroke-linejoin="round"/>
</svg>
