<svg width="33" height="38" viewBox="0 0 33 38" fill="none" xmlns="http://www.w3.org/2000/svg">
<path fill-rule="evenodd" clip-rule="evenodd" d="M13.9723 37.4157H0.50293V0.172363H32.6776V37.4157H19.21V28.1374C19.21 26.6409 18.3682 25.425 17.2459 25.425H15.9364C14.8141 25.425 13.9723 26.6409 13.9723 28.1374V37.4157ZM4.9934 11.1146H10.1376V5.97041H4.9934V11.1146ZM10.1376 20.0934H4.9934V14.8557H10.1376V20.0934ZM4.9934 29.0729H10.1376V23.8351H4.9934V29.0729ZM19.1165 11.1146H13.9723V5.97041H19.1165V11.1146ZM13.9723 20.0934H19.1165V14.8557H13.9723V20.0934ZM28.0954 11.1146H22.9512V5.97041H28.0954V11.1146ZM22.9512 20.0934H28.0954V14.8557H22.9512V20.0934ZM28.0954 29.0729H22.9512V23.8351H28.0954V29.0729Z" fill="#00453A"/>
</svg>
