<svg width="27" height="27" viewBox="0 0 27 27" fill="none" xmlns="http://www.w3.org/2000/svg">
<path d="M17.508 13.2886C17.508 12.2405 17.1372 11.3457 16.3956 10.6041C15.6541 9.86258 14.7592 9.4918 13.7112 9.4918C12.6631 9.4918 11.7683 9.86258 11.0267 10.6041C10.2852 11.3457 9.91438 12.2405 9.91438 13.2886C9.91438 14.3367 10.2852 15.2315 11.0267 15.973C11.7683 16.7146 12.6631 17.0854 13.7112 17.0854C14.7592 17.0854 15.6541 16.7146 16.3956 15.973C17.1372 15.2315 17.508 14.3367 17.508 13.2886ZM19.5547 13.2886C19.5547 14.9101 18.9861 16.2894 17.8491 17.4265C16.712 18.5636 15.3327 19.1321 13.7112 19.1321C12.0896 19.1321 10.7103 18.5636 9.57326 17.4265C8.4362 16.2894 7.86767 14.9101 7.86767 13.2886C7.86767 11.667 8.4362 10.2877 9.57326 9.15068C10.7103 8.01363 12.0896 7.4451 13.7112 7.4451C15.3327 7.4451 16.712 8.01363 17.8491 9.15068C18.9861 10.2877 19.5547 11.667 19.5547 13.2886ZM21.1564 7.2078C21.1564 7.58352 21.023 7.90486 20.756 8.17182C20.489 8.43879 20.1677 8.57227 19.792 8.57227C19.4162 8.57227 19.0949 8.43879 18.8279 8.17182C18.561 7.90486 18.4275 7.58352 18.4275 7.2078C18.4275 6.83207 18.561 6.51073 18.8279 6.24377C19.0949 5.97681 19.4162 5.84333 19.792 5.84333C20.1677 5.84333 20.489 5.97681 20.756 6.24377C21.023 6.51073 21.1564 6.83207 21.1564 7.2078ZM13.7112 3.94493C13.642 3.94493 13.2638 3.94246 12.5766 3.93752C11.8894 3.93257 11.3678 3.93257 11.0119 3.93752C10.6559 3.94246 10.1789 3.95729 9.58068 3.98201C8.98248 4.00673 8.47328 4.05616 8.05306 4.13032C7.63284 4.20448 7.27937 4.29594 6.99263 4.4047C6.49826 4.60245 6.06321 4.88918 5.68748 5.26491C5.31176 5.64063 5.02502 6.07568 4.82727 6.57005C4.71851 6.85679 4.62705 7.21027 4.5529 7.63049C4.47874 8.0507 4.4293 8.55991 4.40459 9.1581C4.37987 9.75629 4.36504 10.2334 4.36009 10.5893C4.35515 10.9453 4.35515 11.4668 4.36009 12.154C4.36504 12.8412 4.36751 13.2194 4.36751 13.2886C4.36751 13.3578 4.36504 13.736 4.36009 14.4232C4.35515 15.1104 4.35515 15.6319 4.36009 15.9879C4.36504 16.3438 4.37987 16.8209 4.40459 17.4191C4.4293 18.0173 4.47874 18.5265 4.5529 18.9467C4.62705 19.3669 4.71851 19.7204 4.82727 20.0071C5.02502 20.5015 5.31176 20.9366 5.68748 21.3123C6.06321 21.688 6.49826 21.9747 6.99263 22.1725C7.27937 22.2812 7.63284 22.3727 8.05306 22.4469C8.47328 22.521 8.98248 22.5705 9.58068 22.5952C10.1789 22.6199 10.6559 22.6347 11.0119 22.6397C11.3678 22.6446 11.8894 22.6446 12.5766 22.6397C13.2638 22.6347 13.642 22.6323 13.7112 22.6323C13.7804 22.6323 14.1586 22.6347 14.8458 22.6397C15.5329 22.6446 16.0545 22.6446 16.4104 22.6397C16.7664 22.6347 17.2435 22.6199 17.8417 22.5952C18.4399 22.5705 18.9491 22.521 19.3693 22.4469C19.7895 22.3727 20.143 22.2812 20.4297 22.1725C20.9241 21.9747 21.3591 21.688 21.7349 21.3123C22.1106 20.9366 22.3973 20.5015 22.5951 20.0071C22.7038 19.7204 22.7953 19.3669 22.8694 18.9467C22.9436 18.5265 22.993 18.0173 23.0178 17.4191C23.0425 16.8209 23.0573 16.3438 23.0622 15.9879C23.0672 15.6319 23.0672 15.1104 23.0622 14.4232C23.0573 13.736 23.0548 13.3578 23.0548 13.2886C23.0548 13.2194 23.0573 12.8412 23.0622 12.154C23.0672 11.4668 23.0672 10.9453 23.0622 10.5893C23.0573 10.2334 23.0425 9.75629 23.0178 9.1581C22.993 8.55991 22.9436 8.0507 22.8694 7.63049C22.7953 7.21027 22.7038 6.85679 22.5951 6.57005C22.3973 6.07568 22.1106 5.64063 21.7349 5.26491C21.3591 4.88918 20.9241 4.60245 20.4297 4.4047C20.143 4.29594 19.7895 4.20448 19.3693 4.13032C18.9491 4.05616 18.4399 4.00673 17.8417 3.98201C17.2435 3.95729 16.7664 3.94246 16.4104 3.93752C16.0545 3.93257 15.5329 3.93257 14.8458 3.93752C14.1586 3.94246 13.7804 3.94493 13.7112 3.94493ZM25.1015 13.2886C25.1015 15.5528 25.0768 17.12 25.0274 17.9901C24.9285 20.0467 24.3155 21.6386 23.1883 22.7657C22.0611 23.8929 20.4693 24.5059 18.4127 24.6048C17.5426 24.6542 15.9754 24.679 13.7112 24.679C11.4469 24.679 9.87977 24.6542 9.00968 24.6048C6.95308 24.5059 5.3612 23.8929 4.23403 22.7657C3.10685 21.6386 2.49383 20.0467 2.39496 17.9901C2.34552 17.12 2.3208 15.5528 2.3208 13.2886C2.3208 11.0244 2.34552 9.4572 2.39496 8.5871C2.49383 6.5305 3.10685 4.93862 4.23403 3.81145C5.3612 2.68428 6.95308 2.07125 9.00968 1.97238C9.87977 1.92294 11.4469 1.89822 13.7112 1.89822C15.9754 1.89822 17.5426 1.92294 18.4127 1.97238C20.4693 2.07125 22.0611 2.68428 23.1883 3.81145C24.3155 4.93862 24.9285 6.5305 25.0274 8.5871C25.0768 9.4572 25.1015 11.0244 25.1015 13.2886Z" fill="#00453A"/>
</svg>
