<svg width="28" height="27" viewBox="0 0 28 27" fill="none" xmlns="http://www.w3.org/2000/svg">
<path d="M7.93024 9.26919V23.9669H3.03594V9.26919H7.93024ZM8.2417 4.73084C8.25158 5.45262 8.00193 6.05576 7.49272 6.54025C6.98352 7.02473 6.31364 7.26698 5.48309 7.26698H5.45343C4.64266 7.26698 3.99008 7.02473 3.49571 6.54025C3.00134 6.05576 2.75415 5.45262 2.75415 4.73084C2.75415 3.99917 3.00875 3.39356 3.51796 2.91402C4.02716 2.43447 4.69209 2.1947 5.51275 2.1947C6.33342 2.1947 6.99093 2.43447 7.48531 2.91402C7.97968 3.39356 8.23181 3.99917 8.2417 4.73084ZM25.5349 15.5428V23.9669H20.6554V16.1064C20.6554 15.0682 20.4552 14.2549 20.0548 13.6666C19.6543 13.0783 19.0289 12.7842 18.1786 12.7842C17.5557 12.7842 17.0341 12.9547 16.6139 13.2959C16.1937 13.637 15.8798 14.0597 15.6721 14.5639C15.5634 14.8606 15.509 15.261 15.509 15.7653V23.9669H10.6295C10.6493 20.0218 10.6592 16.8232 10.6592 14.3711C10.6592 11.919 10.6542 10.4557 10.6444 9.98109L10.6295 9.26919H15.509V11.4049H15.4793C15.6771 11.0885 15.8798 10.8116 16.0874 10.5743C16.295 10.337 16.5744 10.08 16.9254 9.80311C17.2764 9.52626 17.7065 9.31121 18.2157 9.15795C18.7249 9.0047 19.2909 8.92807 19.9139 8.92807C21.6046 8.92807 22.9641 9.48918 23.9924 10.6114C25.0207 11.7336 25.5349 13.3774 25.5349 15.5428Z" fill="#00453A"/>
</svg>
