<svg width="158" height="17" viewBox="0 0 158 17" fill="none" xmlns="http://www.w3.org/2000/svg">
<path fill-rule="evenodd" clip-rule="evenodd" d="M94.3783 9.49053C93.8971 9.49053 93.5047 9.67445 93.2043 10.0438C92.9024 10.4116 92.7522 10.9534 92.7522 11.6692C92.7522 12.024 92.7951 12.3335 92.8802 12.5995C92.9652 12.8654 93.0802 13.0845 93.2258 13.2577C93.3714 13.4317 93.5423 13.5612 93.7407 13.6462C93.9392 13.7305 94.1515 13.7734 94.3783 13.7734C94.881 13.7734 95.2856 13.5819 95.5899 13.1995C95.8948 12.8171 96.0473 12.2998 96.0473 11.6485C96.0473 10.9818 95.9063 10.4561 95.6274 10.0699C95.3469 9.68364 94.9316 9.49053 94.3783 9.49053ZM92.7844 9.71353C92.976 9.40241 93.2212 9.16255 93.5231 8.99703C93.8243 8.82997 94.1553 8.74644 94.517 8.74644C94.8917 8.74644 95.2289 8.81541 95.5262 8.95411C95.8243 9.09205 96.0772 9.28899 96.2857 9.54417C96.4949 9.79936 96.6566 10.1036 96.77 10.4576C96.8834 10.8124 96.9401 11.2048 96.9401 11.6377C96.9401 12.0347 96.8849 12.4079 96.7753 12.7589C96.6658 13.1091 96.5064 13.4156 96.2964 13.6777C96.088 13.9405 95.8358 14.1451 95.5431 14.2945C95.2481 14.4432 94.9201 14.5175 94.5592 14.5175C94.1055 14.5175 93.7338 14.4302 93.4426 14.257C93.153 14.083 92.933 13.8616 92.7844 13.5934V14.4003H91.9131V6.96094H92.7844V9.71353Z" fill="white"/>
<path fill-rule="evenodd" clip-rule="evenodd" d="M100.501 14.699C100.424 14.9327 100.339 15.1465 100.246 15.3419C100.154 15.5365 100.038 15.7051 99.896 15.8461C99.7542 15.9887 99.5826 16.0975 99.381 16.1764C99.1787 16.2538 98.9327 16.2929 98.6423 16.2929C98.4009 16.2929 98.1963 16.2714 98.0262 16.2293V15.5488C98.125 15.5634 98.2017 15.5703 98.2591 15.5703H98.4829C98.6883 15.5703 98.8584 15.5457 98.9925 15.4959C99.1266 15.4461 99.2392 15.3733 99.3274 15.2783C99.4155 15.1825 99.4883 15.0607 99.545 14.9112C99.6025 14.7626 99.6584 14.5924 99.7151 14.4009H99.4285L97.4729 8.86426H98.4185L100.023 13.7211L101.479 8.86426H102.383L100.501 14.699Z" fill="white"/>
<path fill-rule="evenodd" clip-rule="evenodd" d="M106.75 13.5934H110.214V14.4003H105.867V6.96094H106.75V13.5934Z" fill="white"/>
<path fill-rule="evenodd" clip-rule="evenodd" d="M111.204 14.4015H112.076V8.8641H111.204V14.4015ZM111.64 6.81268C111.796 6.81268 111.932 6.86786 112.044 6.97744C112.157 7.08702 112.214 7.22036 112.214 7.37592C112.214 7.53915 112.157 7.67555 112.044 7.78513C111.932 7.89548 111.796 7.94989 111.64 7.94989C111.477 7.94989 111.339 7.89548 111.227 7.78513C111.112 7.67555 111.056 7.53915 111.056 7.37592C111.056 7.22036 111.112 7.08702 111.227 6.97744C111.339 6.86786 111.477 6.81268 111.64 6.81268Z" fill="white"/>
<path fill-rule="evenodd" clip-rule="evenodd" d="M115.592 9.40592C115.131 9.40592 114.784 9.51321 114.549 9.72471C114.316 9.93698 114.199 10.2106 114.199 10.5431C114.199 10.8903 114.319 11.1638 114.561 11.3616C114.801 11.56 115.138 11.6589 115.569 11.6589C116.024 11.6589 116.371 11.5616 116.611 11.3669C116.852 11.1723 116.973 10.8979 116.973 10.5431C116.973 10.2029 116.861 9.92855 116.638 9.71934C116.415 9.51091 116.066 9.40592 115.592 9.40592ZM114.645 13.8061C114.384 13.9479 114.206 14.0896 114.114 14.2314C114.022 14.3724 113.975 14.5249 113.975 14.6873C113.975 14.9716 114.103 15.1977 114.359 15.3678C114.614 15.538 115.06 15.623 115.697 15.623C116.264 15.623 116.693 15.538 116.983 15.3678C117.274 15.1977 117.42 14.9678 117.42 14.6774C117.42 14.5356 117.394 14.4099 117.345 14.3004C117.295 14.1908 117.21 14.0981 117.09 14.0237C116.969 13.9494 116.808 13.8942 116.606 13.859C116.405 13.8237 116.151 13.8061 115.847 13.8061H114.645ZM118.376 9.27872C118.17 9.27872 117.999 9.29404 117.861 9.32623C117.722 9.35765 117.593 9.41742 117.473 9.50171C117.593 9.65038 117.683 9.81513 117.743 9.99522C117.804 10.1768 117.835 10.3669 117.835 10.5646C117.835 10.8336 117.781 11.0749 117.675 11.2872C117.568 11.4995 117.418 11.6826 117.223 11.8344C117.028 11.9869 116.792 12.1033 116.516 12.1853C116.24 12.2666 115.931 12.3072 115.592 12.3072C115.385 12.3072 115.186 12.288 114.992 12.2489C114.796 12.2099 114.61 12.1516 114.433 12.0735C114.362 12.144 114.303 12.2214 114.258 12.3018C114.211 12.3838 114.188 12.4635 114.188 12.5417C114.188 12.7256 114.247 12.8643 114.364 12.9562C114.481 13.0482 114.674 13.0934 114.943 13.0934H116.101C116.498 13.0934 116.834 13.1348 117.111 13.216C117.388 13.298 117.611 13.4076 117.781 13.5455C117.951 13.6835 118.074 13.8482 118.153 14.0398C118.23 14.2314 118.27 14.4329 118.27 14.6452C118.27 15.141 118.041 15.5402 117.584 15.8406C117.127 16.1418 116.495 16.2928 115.687 16.2928C115.226 16.2928 114.834 16.2537 114.513 16.1763C114.191 16.0974 113.93 15.9916 113.732 15.8575C113.533 15.7226 113.39 15.5648 113.302 15.3847C113.212 15.2031 113.168 15.0061 113.168 14.7946C113.168 14.2912 113.455 13.9019 114.03 13.6252C113.625 13.4344 113.424 13.1325 113.424 12.7218C113.424 12.3884 113.611 12.088 113.987 11.8183C113.788 11.6696 113.632 11.4911 113.519 11.2819C113.405 11.0734 113.349 10.8336 113.349 10.5646C113.349 10.324 113.395 10.0933 113.487 9.87337C113.579 9.65421 113.719 9.4611 113.907 9.29404C114.095 9.12852 114.326 8.99518 114.604 8.89633C114.879 8.79671 115.201 8.74689 115.569 8.74689C115.868 8.74689 116.133 8.77755 116.367 8.83809C116.602 8.89786 116.81 8.98062 116.994 9.0879C117.285 8.69785 117.745 8.50244 118.376 8.50244V9.27872Z" fill="white"/>
<path fill-rule="evenodd" clip-rule="evenodd" d="M120.17 9.71353C120.355 9.4093 120.596 9.17175 120.893 9.00163C121.19 8.8315 121.52 8.74644 121.882 8.74644C122.505 8.74644 122.977 8.93496 123.3 9.31045C123.623 9.68518 123.784 10.2063 123.784 10.8722V14.4003H122.912V11.0845C122.912 10.8515 122.892 10.6346 122.853 10.4369C122.816 10.2385 122.75 10.0699 122.657 9.93116C122.565 9.79399 122.441 9.68518 122.285 9.60778C122.129 9.52961 121.934 9.49053 121.701 9.49053C121.488 9.49053 121.289 9.53345 121.105 9.61851C120.921 9.70357 120.76 9.82388 120.622 9.97944C120.485 10.1358 120.374 10.3266 120.293 10.5534C120.211 10.7802 120.17 11.0354 120.17 11.319V14.4003H119.299V6.96094H120.17V9.71353Z" fill="white"/>
<path fill-rule="evenodd" clip-rule="evenodd" d="M126.302 8.86356H127.854V9.53331H126.302V12.9235C126.302 13.1925 126.36 13.4032 126.472 13.5557C126.585 13.7082 126.802 13.784 127.121 13.784C127.284 13.784 127.443 13.7695 127.599 13.7411C127.755 13.7135 127.892 13.6814 128.014 13.6461V14.3473C127.872 14.3971 127.71 14.4377 127.53 14.4691C127.349 14.5013 127.156 14.5174 126.951 14.5174C126.66 14.5174 126.42 14.4799 126.228 14.4055C126.036 14.332 125.881 14.2285 125.76 14.0975C125.64 13.9664 125.555 13.8109 125.505 13.6308C125.456 13.4492 125.431 13.2522 125.431 13.04V9.53331H124.644V8.86356H125.431V7.38611H126.302V8.86356Z" fill="white"/>
<path fill-rule="evenodd" clip-rule="evenodd" d="M131.001 8.74646C131.49 8.74646 131.912 8.81926 132.266 8.96486C132.62 9.10969 132.925 9.30663 133.18 9.55415L132.659 10.0752C132.446 9.88443 132.202 9.73577 131.926 9.62848C131.649 9.52273 131.341 9.46986 131.001 9.46986C130.597 9.46986 130.288 9.54419 130.071 9.69285C129.855 9.84152 129.747 10.0323 129.747 10.2668C129.747 10.394 129.772 10.5036 129.821 10.5963C129.872 10.6883 129.954 10.7695 130.071 10.8408C130.188 10.9113 130.343 10.9718 130.534 11.0209C130.724 11.0707 130.965 11.1167 131.256 11.1588C131.597 11.2155 131.894 11.2853 132.148 11.3665C132.403 11.4477 132.62 11.5542 132.797 11.6845C132.974 11.8163 133.107 11.9757 133.196 12.1634C133.285 12.352 133.328 12.5796 133.328 12.8485C133.328 13.0899 133.279 13.3114 133.18 13.5129C133.08 13.7152 132.932 13.8899 132.733 14.0394C132.534 14.188 132.291 14.3045 132 14.3903C131.71 14.4746 131.374 14.5176 130.991 14.5176C130.459 14.5176 129.984 14.434 129.567 14.2677C129.148 14.1014 128.801 13.8693 128.525 13.5712L129.088 13.0194C129.314 13.2669 129.59 13.457 129.911 13.588C130.234 13.7191 130.587 13.7842 130.969 13.7842C131.472 13.7842 131.843 13.6991 132.079 13.5298C132.317 13.3589 132.436 13.1428 132.436 12.8807C132.436 12.7466 132.413 12.6278 132.366 12.5244C132.321 12.4225 132.236 12.332 132.111 12.2539C131.987 12.1757 131.82 12.1067 131.606 12.0462C131.395 11.9864 131.121 11.932 130.789 11.8814C130.123 11.7757 129.637 11.5933 129.332 11.3343C129.028 11.076 128.876 10.7343 128.876 10.3097C128.876 10.0683 128.927 9.85225 129.03 9.66067C129.133 9.46986 129.275 9.30663 129.459 9.17176C129.644 9.03689 129.868 8.93267 130.13 8.85834C130.391 8.78401 130.682 8.74646 131.001 8.74646Z" fill="white"/>
<path fill-rule="evenodd" clip-rule="evenodd" d="M136.902 9.49055C136.413 9.49055 136.017 9.67293 135.717 10.0377C135.416 10.4032 135.265 10.9358 135.265 11.6378C135.265 12.0056 135.307 12.3244 135.393 12.5941C135.477 12.8639 135.592 13.0846 135.737 13.2577C135.882 13.4317 136.052 13.5612 136.248 13.6463C136.443 13.7306 136.653 13.7735 136.88 13.7735C137.383 13.7735 137.787 13.5819 138.092 13.1995C138.397 12.8171 138.548 12.2822 138.548 11.5948C138.548 11.283 138.513 10.9979 138.443 10.7396C138.371 10.4806 138.267 10.2592 138.129 10.0752C137.99 9.89133 137.819 9.74726 137.613 9.64458C137.408 9.54266 137.17 9.49055 136.902 9.49055ZM137.039 8.74646C137.408 8.74646 137.741 8.81773 138.039 8.95949C138.336 9.10126 138.587 9.29744 138.793 9.54879C138.999 9.80014 139.158 10.1021 139.271 10.4523C139.384 10.8032 139.441 11.1841 139.441 11.5948C139.441 11.9995 139.389 12.3803 139.282 12.7374C139.175 13.0953 139.017 13.4056 138.809 13.6669C138.6 13.929 138.346 14.1367 138.049 14.2892C137.752 14.4409 137.411 14.5176 137.029 14.5176C136.617 14.5176 136.265 14.434 135.972 14.2677C135.677 14.1014 135.449 13.8762 135.286 13.5934V16.1115H134.425V8.86371H135.286V9.69285C135.477 9.39476 135.725 9.16257 136.029 8.99704C136.334 8.82999 136.672 8.74646 137.039 8.74646Z" fill="white"/>
<path fill-rule="evenodd" clip-rule="evenodd" d="M142.863 9.46986C142.366 9.46986 141.978 9.62389 141.699 9.93118C141.419 10.24 141.261 10.6454 141.226 11.1481H144.435C144.4 10.6385 144.249 10.2308 143.984 9.92658C143.718 9.62159 143.345 9.46986 142.863 9.46986ZM142.884 8.74646C143.28 8.74646 143.631 8.82309 143.935 8.97482C144.24 9.12808 144.498 9.33269 144.706 9.5917C144.915 9.84995 145.073 10.1549 145.179 10.5051C145.286 10.8561 145.339 11.227 145.339 11.6163V11.8178H141.215C141.23 12.4416 141.389 12.9259 141.692 13.2692C141.998 13.6125 142.43 13.7842 142.99 13.7842C143.365 13.7842 143.683 13.7022 143.941 13.5397C144.2 13.3765 144.407 13.1642 144.562 12.9022L145.286 13.2953C145.038 13.6853 144.72 13.988 144.335 14.2041C143.948 14.4202 143.489 14.5283 142.958 14.5283C142.533 14.5283 142.156 14.4517 141.827 14.2999C141.497 14.1474 141.22 13.9421 140.997 13.683C140.774 13.4248 140.605 13.119 140.492 12.7642C140.38 12.4094 140.322 12.0309 140.322 11.6263C140.322 11.2232 140.377 10.8462 140.487 10.4952C140.597 10.145 140.758 9.83922 140.971 9.58097C141.183 9.32196 141.449 9.11889 141.768 8.96946C142.086 8.82079 142.458 8.74646 142.884 8.74646Z" fill="white"/>
<path fill-rule="evenodd" clip-rule="evenodd" d="M148.728 9.47047C148.232 9.47047 147.844 9.6245 147.564 9.93179C147.284 10.2406 147.126 10.646 147.091 11.1487H150.301C150.265 10.6391 150.115 10.2314 149.849 9.92719C149.583 9.6222 149.21 9.47047 148.728 9.47047ZM148.748 8.74707C149.145 8.74707 149.496 8.8237 149.801 8.97543C150.106 9.12869 150.363 9.3333 150.572 9.59231C150.781 9.85056 150.939 10.1556 151.044 10.5058C151.151 10.8567 151.204 11.2276 151.204 11.6169V11.8184H147.081C147.095 12.4422 147.254 12.9265 147.558 13.2698C147.863 13.6132 148.296 13.7848 148.855 13.7848C149.23 13.7848 149.548 13.7028 149.806 13.5404C150.065 13.3771 150.273 13.1649 150.428 12.9028L151.151 13.2959C150.903 13.686 150.585 13.9886 150.2 14.2047C149.814 14.4208 149.354 14.5289 148.823 14.5289C148.398 14.5289 148.021 14.4523 147.692 14.3005C147.362 14.148 147.086 13.9427 146.862 13.6837C146.64 13.4254 146.471 13.1196 146.358 12.7648C146.245 12.41 146.188 12.0315 146.188 11.6269C146.188 11.2238 146.243 10.8468 146.352 10.4958C146.463 10.1456 146.623 9.83983 146.836 9.58158C147.049 9.32257 147.314 9.1195 147.633 8.97007C147.952 8.8214 148.324 8.74707 148.748 8.74707Z" fill="white"/>
<path fill-rule="evenodd" clip-rule="evenodd" d="M154.615 9.49053C154.083 9.49053 153.674 9.68211 153.388 10.0645C153.1 10.4469 152.958 10.9718 152.958 11.6377C152.958 12.3037 153.093 12.8263 153.367 13.2048C153.639 13.5842 154.052 13.7734 154.604 13.7734C155.086 13.7734 155.48 13.5934 155.784 13.2317C156.088 12.87 156.241 12.332 156.241 11.6163C156.241 11.2622 156.198 10.9519 156.113 10.6867C156.028 10.4208 155.913 10.1994 155.769 10.0224C155.623 9.84457 155.451 9.712 155.253 9.62387C155.054 9.53498 154.842 9.49053 154.615 9.49053ZM157.08 14.4003H156.21V13.5505C156.024 13.8547 155.778 14.0922 155.47 14.2631C155.162 14.4325 154.824 14.5175 154.457 14.5175C154.08 14.5175 153.744 14.4463 153.446 14.3045C153.149 14.1635 152.896 13.9666 152.692 13.7152C152.486 13.4639 152.329 13.1627 152.219 12.8117C152.109 12.4608 152.054 12.0768 152.054 11.6584C152.054 11.2408 152.111 10.8546 152.224 10.5005C152.337 10.1465 152.499 9.83767 152.707 9.57636C152.916 9.31351 153.171 9.10968 153.473 8.96484C153.774 8.81924 154.112 8.74644 154.488 8.74644C154.906 8.74644 155.257 8.82997 155.54 8.99703C155.823 9.16255 156.047 9.38095 156.21 9.64993V6.96094H157.08V14.4003Z" fill="white"/>
<path fill-rule="evenodd" clip-rule="evenodd" d="M21.25 0C17.2284 0 13.9678 3.26066 13.9678 7.28226C13.9678 11.3039 17.2284 14.5645 21.25 14.5645C25.2716 14.5645 28.5315 11.3039 28.5315 7.28226C28.5315 3.26066 25.2716 0 21.25 0ZM21.25 11.7368C18.7902 11.7368 16.7962 9.74212 16.7962 7.28226C16.7962 4.8224 18.7902 2.82846 21.25 2.82846C23.7091 2.82846 25.7038 4.8224 25.7038 7.28226C25.7038 9.74212 23.7091 11.7368 21.25 11.7368Z" fill="white"/>
<path fill-rule="evenodd" clip-rule="evenodd" d="M60.9915 0.178589V2.93961H65.4728V14.3814H68.2339V2.93961H72.7153V0.178589H60.9915Z" fill="white"/>
<path fill-rule="evenodd" clip-rule="evenodd" d="M0 14.3814H2.76179V0.178589H0V14.3814Z" fill="white"/>
<path fill-rule="evenodd" clip-rule="evenodd" d="M3.74072 5.8808V8.67937C6.89026 8.67937 9.44361 11.2327 9.44361 14.3815H12.2414C12.2414 9.68707 8.43515 5.8808 3.74072 5.8808Z" fill="white"/>
<path fill-rule="evenodd" clip-rule="evenodd" d="M77.6891 0.178589L72.3855 14.3814H75.3235L76.5719 11.0434H82.4066L83.6549 14.3814H86.5929L81.2885 0.178589H77.6891ZM79.4884 3.24154L81.3736 8.2808H77.6049L79.4884 3.24154Z" fill="white"/>
<path fill-rule="evenodd" clip-rule="evenodd" d="M40.1052 0.176697V8.87204C40.0546 10.5457 38.6837 11.8867 36.9986 11.8867C35.3127 11.8867 33.9418 10.5457 33.8919 8.87204V0.176697H31.1294V8.87434C31.2252 12.0346 33.8146 14.5673 36.9986 14.5673C40.1818 14.5673 42.7712 12.0346 42.867 8.87434V0.176697H40.1052Z" fill="white"/>
<path fill-rule="evenodd" clip-rule="evenodd" d="M55.5239 0.178589V9.46476L49.2149 0.178589H46.4646V14.3814H49.2264V5.10904L55.5163 14.3814H58.2857V0.178589H55.5239Z" fill="white"/>
<path fill-rule="evenodd" clip-rule="evenodd" d="M6.24512 5.25694C7.32562 5.55197 8.32872 6.03398 9.21764 6.66695C11.0614 5.10827 12.2323 2.78022 12.2323 0.178589H9.40385C9.40385 2.40626 8.11645 4.332 6.24512 5.25694Z" fill="white"/>
</svg>
