<svg width="24" height="24" viewBox="0 0 24 24" fill="none" xmlns="http://www.w3.org/2000/svg">
<circle cx="12" cy="12" r="12" fill="#00453A"/>
<path d="M12.6786 11.4643H17.5357C17.871 11.4643 18.1429 11.7361 18.1429 12.0714C18.1429 12.4067 17.871 12.6786 17.5357 12.6786H12.6786V17.5357C12.6786 17.871 12.4067 18.1429 12.0714 18.1429C11.7361 18.1429 11.4643 17.871 11.4643 17.5357V12.6786H6.60714C6.27183 12.6786 6 12.4067 6 12.0714C6 11.7361 6.27183 11.4643 6.60714 11.4643H11.4643V6.60714C11.4643 6.27183 11.7361 6 12.0714 6C12.4067 6 12.6786 6.27183 12.6786 6.60714V11.4643Z" fill="#CCEDE8"/>
</svg>
