<svg width="10" height="10" viewBox="0 0 10 10" fill="none" xmlns="http://www.w3.org/2000/svg">
<path d="M5.41671 4.58334H8.75004C8.98016 4.58334 9.16671 4.76988 9.16671 5C9.16671 5.23012 8.98016 5.41667 8.75004 5.41667H5.41671V8.75C5.41671 8.98012 5.23016 9.16667 5.00004 9.16667C4.76992 9.16667 4.58337 8.98012 4.58337 8.75V5.41667H1.25004C1.01992 5.41667 0.833374 5.23012 0.833374 5C0.833374 4.76988 1.01992 4.58334 1.25004 4.58334H4.58337V1.25C4.58337 1.01988 4.76992 0.833336 5.00004 0.833336C5.23016 0.833336 5.41671 1.01988 5.41671 1.25V4.58334Z" fill="#00453A"/>
</svg>
