<svg width="49" height="50" viewBox="0 0 49 50" fill="none" xmlns="http://www.w3.org/2000/svg">
<path d="M14.3812 15.269C16.6094 14.6039 18.8181 15.3711 19.5979 17.1113L46.0522 8.60276L46.7013 11.6217L19.9992 18.9778C20.005 20.4557 19.0985 21.8993 17.7029 22.8091" fill="#00453A"/>
<path d="M14.3811 15.269C16.6094 14.6039 18.8181 15.3711 19.5979 17.1113L46.0522 8.60276L46.7013 11.6217L19.9992 18.9778C20.005 20.4557 19.0985 21.8993 17.7029 22.8091" stroke="#00453A" stroke-width="1.18562" stroke-linecap="round" stroke-linejoin="round"/>
<path d="M5.0733 20.1013L6.86311 19.6218L7.89404 19.3456" fill="#00453A"/>
<path d="M5.0733 20.1013L6.86311 19.6218L7.89404 19.3456" stroke="#00453A" stroke-width="1.18562" stroke-linecap="round" stroke-linejoin="round"/>
<path d="M4.26166 17.0665L5.86529 16.6368L6.76733 16.3951" fill="#00453A"/>
<path d="M4.26166 17.0665L5.86529 16.6368L6.76733 16.3951" stroke="#00453A" stroke-width="1.18562" stroke-linecap="round" stroke-linejoin="round"/>
<path d="M5.74207 22.8828L8.93433 22.0274L5.74207 22.8828Z" fill="#00453A"/>
<path d="M5.74207 22.8828L8.93433 22.0274" stroke="#00453A" stroke-width="1.18562" stroke-linecap="round" stroke-linejoin="round"/>
<path d="M6.59943 26.0755L10.1067 25.1358L6.59943 26.0755Z" fill="#00453A"/>
<path d="M6.59943 26.0755L10.1067 25.1358" stroke="#00453A" stroke-width="1.18562" stroke-linecap="round" stroke-linejoin="round"/>
<path d="M11.9031 13.1099L17.587 25.4083L11.9031 13.1099Z" fill="#00453A"/>
<path d="M11.9031 13.1099L17.587 25.4083" stroke="#00453A" stroke-width="1.18562" stroke-linecap="round" stroke-linejoin="round"/>
<path d="M9.75593 13.6855L15.4398 25.9839L9.75593 13.6855Z" fill="#00453A"/>
<path d="M9.75593 13.6855L15.4398 25.9839" stroke="#00453A" stroke-width="1.18562" stroke-linecap="round" stroke-linejoin="round"/>
<path d="M7.60746 14.2611L13.2914 26.5595L7.60746 14.2611Z" fill="#00453A"/>
<path d="M7.60746 14.2611L13.2914 26.5595" stroke="#00453A" stroke-width="1.18562" stroke-linecap="round" stroke-linejoin="round"/>
<path d="M11.1016 27.0769C11.3599 28.2708 11.7267 31.6491 9.52301 33.563L11.1016 27.0769Z" fill="#00453A"/>
<path d="M11.1016 27.0769C11.3599 28.2708 11.7267 31.6491 9.52301 33.563" stroke="#00453A" stroke-width="1.18562" stroke-linecap="round" stroke-linejoin="round"/>
<path d="M43.5152 36.4892C43.5152 43.351 33.9857 48.9234 22.2332 48.9234C10.4808 48.9234 0.936523 43.3658 0.936523 36.4892C8.58378 36.178 36.9646 36.178 43.5152 36.4892Z" fill="#00453A" stroke="#00453A" stroke-width="1.18562" stroke-linecap="round" stroke-linejoin="round"/>
</svg>
