<svg width="23" height="48" viewBox="0 0 23 48" fill="none" xmlns="http://www.w3.org/2000/svg">
<path fill-rule="evenodd" clip-rule="evenodd" d="M2.6795 19.4663L11.0971 42.7614L19.221 19.662H18.2422C17.8507 21.0323 16.5783 22.6963 14.2292 22.892H13.9356C11.978 22.892 10.5098 21.6196 9.62889 20.445C8.84586 20.9344 7.86708 21.1302 6.88829 20.9344C5.9095 20.7387 5.12647 19.9556 4.73495 19.4663C4.0498 19.662 3.36465 19.662 2.6795 19.4663ZM21.8637 13.3977L21.8637 13.3978C23.4298 15.649 22.3531 17.6066 22.2553 17.6066C21.9616 18.2917 21.3743 18.879 20.5913 19.1726L20.885 19.2705L11.0971 47.0681L0.624044 17.9981L0.819802 17.9002C-0.0611074 16.432 0.917681 14.2787 1.3092 13.4956C1.01556 12.6147 0.917681 11.7338 0.917681 10.755C0.917681 5.07807 5.61586 0.379883 11.5865 0.379883C17.4592 0.379883 22.2553 5.07807 22.2553 10.755C22.2553 11.6359 22.0595 12.5168 21.8637 13.3977Z" fill="#00453A"/>
</svg>
