<svg width="27" height="27" viewBox="0 0 27 27" fill="none" xmlns="http://www.w3.org/2000/svg">
<path d="M24.9758 6.05052C24.3133 7.01949 23.5124 7.84509 22.5731 8.52733C22.583 8.66575 22.588 8.87339 22.588 9.15024C22.588 10.4356 22.4001 11.7185 22.0244 12.9989C21.6487 14.2794 21.0777 15.5079 20.3114 16.6845C19.5451 17.8611 18.633 18.9018 17.575 19.8065C16.5171 20.7112 15.2416 21.433 13.7486 21.9718C12.2556 22.5107 10.6587 22.7801 8.95809 22.7801C6.27858 22.7801 3.82649 22.0633 1.60181 20.6296C1.94787 20.6691 2.33348 20.6889 2.75864 20.6889C4.98332 20.6889 6.96576 20.0067 8.70596 18.6422C7.66777 18.6224 6.73835 18.3036 5.91769 17.6856C5.09703 17.0676 4.53344 16.2791 4.22693 15.32C4.55322 15.3695 4.85478 15.3942 5.13163 15.3942C5.5568 15.3942 5.97701 15.3398 6.39229 15.231C5.28489 15.0036 4.36783 14.4524 3.6411 13.5774C2.91437 12.7023 2.551 11.6864 2.551 10.5295V10.4702C3.22335 10.8459 3.94514 11.0486 4.71636 11.0783C4.06379 10.6432 3.54469 10.0747 3.15908 9.37271C2.77347 8.6707 2.58067 7.90936 2.58067 7.0887C2.58067 6.2186 2.79819 5.41277 3.23324 4.67121C4.42962 6.14445 5.88555 7.32353 7.60103 8.20846C9.31651 9.09339 11.1531 9.58529 13.1108 9.68416C13.0317 9.30844 12.9922 8.9426 12.9922 8.58665C12.9922 7.26173 13.4594 6.13209 14.3937 5.19772C15.3281 4.26336 16.4577 3.79617 17.7827 3.79617C19.1669 3.79617 20.3336 4.30043 21.2828 5.30896C22.3606 5.10132 23.374 4.71571 24.3232 4.15212C23.9574 5.28918 23.2554 6.16917 22.2172 6.79208C23.1367 6.6932 24.0563 6.44602 24.9758 6.05052Z" fill="#00453A"/>
</svg>
