<svg width="28" height="27" viewBox="0 0 28 27" fill="none" xmlns="http://www.w3.org/2000/svg">
<g clip-path="url(#clip0)">
<path d="M17.0104 18.4499V21.5793C17.0104 22.2418 16.8176 22.573 16.432 22.573C16.2046 22.573 15.9821 22.4642 15.7646 22.2467V17.7825C15.9821 17.565 16.2046 17.4562 16.432 17.4562C16.8176 17.4562 17.0104 17.7875 17.0104 18.4499ZM22.0234 18.4647V19.147H20.6886V18.4647C20.6886 17.7924 20.911 17.4562 21.356 17.4562C21.8009 17.4562 22.0234 17.7924 22.0234 18.4647ZM7.69643 15.2315H9.28337V13.8374H4.65603V15.2315H6.21331V23.6705H7.69643V15.2315ZM11.9678 23.6705H13.2878V16.3439H11.9678V21.9501C11.6712 22.3654 11.3894 22.573 11.1224 22.573C10.9445 22.573 10.8406 22.4692 10.811 22.2615C10.8011 22.2319 10.7961 22.0588 10.7961 21.7424V16.3439H9.47617V22.1429C9.47617 22.6274 9.51572 22.9883 9.59482 23.2256C9.71347 23.5914 10.0002 23.7743 10.455 23.7743C10.9296 23.7743 11.4339 23.4728 11.9678 22.8696V23.6705ZM18.3304 21.4755V18.5537C18.3304 17.8319 18.2859 17.3425 18.1969 17.0854C18.0288 16.5317 17.6778 16.2549 17.1439 16.2549C16.6495 16.2549 16.1898 16.5219 15.7646 17.0558V13.8374H14.4446V23.6705H15.7646V22.9586C16.2095 23.5024 16.6693 23.7743 17.1439 23.7743C17.6778 23.7743 18.0288 23.5024 18.1969 22.9586C18.2859 22.6916 18.3304 22.1973 18.3304 21.4755ZM23.3433 21.3272V21.1344H21.9937C21.9937 21.6386 21.9838 21.9402 21.964 22.0391C21.8948 22.395 21.6971 22.573 21.3708 22.573C20.916 22.573 20.6886 22.2319 20.6886 21.5496V20.2593H23.3433V18.7317C23.3433 17.9506 23.2099 17.3771 22.9429 17.0113C22.5573 16.507 22.0333 16.2549 21.3708 16.2549C20.6985 16.2549 20.1695 16.507 19.7839 17.0113C19.507 17.3771 19.3686 17.9506 19.3686 18.7317V21.2975C19.3686 22.0786 19.512 22.6521 19.7987 23.0179C20.1843 23.5222 20.7182 23.7743 21.4005 23.7743C22.1124 23.7743 22.6463 23.5123 23.0022 22.9883C23.1802 22.7213 23.284 22.4543 23.3137 22.1874C23.3335 22.0984 23.3433 21.8117 23.3433 21.3272ZM14.326 7.78628V4.67172C14.326 3.98949 14.1134 3.64837 13.6882 3.64837C13.2631 3.64837 13.0505 3.98949 13.0505 4.67172V7.78628C13.0505 8.4784 13.2631 8.82446 13.6882 8.82446C14.1134 8.82446 14.326 8.4784 14.326 7.78628ZM24.9896 18.9245C24.9896 21.2382 24.8611 22.9685 24.604 24.1154C24.4656 24.6988 24.1788 25.1882 23.7438 25.5837C23.3087 25.9792 22.8045 26.2066 22.231 26.266C20.4117 26.4736 17.6679 26.5774 13.9997 26.5774C10.3314 26.5774 7.58766 26.4736 5.76837 26.266C5.1949 26.2066 4.68816 25.9792 4.24817 25.5837C3.80818 25.1882 3.52391 24.6988 3.39538 24.1154C3.1383 23.008 3.00977 21.2777 3.00977 18.9245C3.00977 16.6108 3.1383 14.8805 3.39538 13.7336C3.5338 13.1502 3.82054 12.6608 4.25559 12.2653C4.69064 11.8698 5.19984 11.6374 5.7832 11.5682C7.59261 11.3705 10.3314 11.2716 13.9997 11.2716C17.6679 11.2716 20.4117 11.3705 22.231 11.5682C22.8045 11.6374 23.3112 11.8698 23.7512 12.2653C24.1912 12.6608 24.4755 13.1502 24.604 13.7336C24.8611 14.841 24.9896 16.5713 24.9896 18.9245ZM10.1881 -0.000106812H11.7009L9.90628 5.91754V9.9368H8.42316V5.91754C8.28473 5.18587 7.98316 4.1378 7.51845 2.77333C7.15262 1.75492 6.83127 0.830441 6.55442 -0.000106812H8.12653L9.17955 3.9005L10.1881 -0.000106812ZM15.6756 4.93869V7.53415C15.6756 8.33503 15.5372 8.91839 15.2603 9.28423C14.8846 9.78849 14.3606 10.0406 13.6882 10.0406C13.0258 10.0406 12.5067 9.78849 12.131 9.28423C11.8541 8.90851 11.7157 8.32514 11.7157 7.53415V4.93869C11.7157 4.14769 11.8541 3.56927 12.131 3.20343C12.5067 2.69917 13.0258 2.44704 13.6882 2.44704C14.3606 2.44704 14.8846 2.69917 15.2603 3.20343C15.5372 3.56927 15.6756 4.14769 15.6756 4.93869ZM20.6441 2.53603V9.9368H19.2944V9.12109C18.7704 9.73411 18.2612 10.0406 17.7668 10.0406C17.312 10.0406 17.0203 9.8577 16.8918 9.49187C16.8127 9.25457 16.7731 8.88379 16.7731 8.37953V2.53603H18.1228V7.97908C18.1228 8.30537 18.1277 8.4784 18.1376 8.49818C18.1673 8.7157 18.2711 8.82446 18.4491 8.82446C18.716 8.82446 18.9978 8.61188 19.2944 8.18672V2.53603H20.6441Z" fill="#00453A"/>
</g>
<defs>
<clipPath id="clip0">
<rect x="0.710938" width="26.5775" height="26.5775" fill="white"/>
</clipPath>
</defs>
</svg>
